<svg width="29" height="30" viewBox="0 0 29 30" fill="none" xmlns="http://www.w3.org/2000/svg">
<path fill-rule="evenodd" clip-rule="evenodd" d="M24.25 10.9498H5.44075C4.99725 10.9498 4.61409 10.6535 4.52116 10.2387C4.42779 9.82402 4.6502 9.40339 5.05494 9.2289L14.4605 5.179C14.7062 5.07363 14.9868 5.07363 15.2321 5.179L24.5645 9.19771C24.934 9.31909 25.2 9.65416 25.2 10.0495C25.2 10.5468 24.7794 10.9498 24.2593 10.9498H24.25ZM6.61627 20.759C6.09658 20.759 5.67554 21.1619 5.67554 21.6593C5.67554 22.1566 6.09658 22.5599 6.61627 22.5599H23.0746C23.5943 22.5599 24.0153 22.1566 24.0153 21.6593C24.0153 21.1619 23.5943 20.759 23.0746 20.759H22.8399V12.6584H23.0746C23.3349 12.6584 23.5445 12.4569 23.5445 12.2087C23.5445 11.9604 23.334 11.759 23.0746 11.759H6.61627C6.35642 11.759 6.14634 11.9604 6.14634 12.2087C6.14634 12.4569 6.35686 12.6584 6.61627 12.6584H6.85145V20.7586H6.61627V20.759ZM20.9584 12.6584V20.7586H18.1371V12.6584H20.9584ZM16.2556 12.6584V20.7586H13.4343V12.6584H16.2556ZM8.73203 12.6584H11.5533V20.7586H8.73203V12.6584ZM24.2504 23.0994H5.44073C4.92104 23.0994 4.5 23.5023 4.5 24.0001C4.5 24.497 4.92104 24.8999 5.44073 24.8999H24.25C24.7697 24.8999 25.1907 24.497 25.1907 24.0001C25.1903 23.5023 24.7693 23.0994 24.2504 23.0994Z" fill="#8B92B5"/>
</svg>
