<svg width="29" height="30" viewBox="0 0 29 30" fill="none" xmlns="http://www.w3.org/2000/svg">
<path fill-rule="evenodd" clip-rule="evenodd" d="M19.4995 5.09998H9.89959C8.90704 5.09998 8.09961 5.8806 8.09961 6.84019V7.42026H21.2994V6.84019C21.2994 5.8806 20.492 5.09998 19.4995 5.09998ZM8.09961 22.5797V23.1597C8.09961 24.1193 8.90704 24.8999 9.89959 24.8999H19.4995C20.492 24.8999 21.2994 24.1193 21.2994 23.1597V22.5797H8.09961ZM8.09961 21.4194V8.58054H21.2994V21.4194H8.09961ZM15.3073 17.797C15.31 17.7967 15.3127 17.7965 15.3154 17.7955C16.0237 17.5463 16.4995 16.8892 16.4995 16.1601C16.4995 15.2005 15.6921 14.4199 14.6995 14.4199C14.3685 14.4199 14.0995 14.1599 14.0995 13.8398C14.0995 13.6059 14.2437 13.3963 14.4663 13.3051C14.7329 13.1946 15.0557 13.2887 15.3481 13.5623C15.586 13.7855 15.9669 13.7804 16.1965 13.5498C16.4274 13.3193 16.4215 12.9522 16.1837 12.7296C15.9132 12.4766 15.6102 12.3155 15.2995 12.2142V11.5196C15.2995 11.1989 15.0312 10.9395 14.6995 10.9395C14.3679 10.9395 14.0995 11.1989 14.0995 11.5196V12.2125C14.0842 12.2178 14.0684 12.2205 14.0526 12.2232C14.0343 12.2263 14.0159 12.2295 13.9982 12.2367C13.3308 12.5097 12.8995 13.1391 12.8995 13.8398C12.8995 14.7994 13.707 15.5801 14.6995 15.5801C15.0306 15.5801 15.2995 15.8401 15.2995 16.1601C15.2995 16.4031 15.1407 16.6224 14.9046 16.7057C14.5993 16.8127 14.2384 16.6666 13.9208 16.3018C13.7093 16.0559 13.3296 16.0248 13.0759 16.2304C12.8216 16.436 12.7888 16.802 13.0021 17.0472C13.3257 17.4203 13.7044 17.6653 14.0995 17.7943V18.4804C14.0995 18.801 14.3679 19.0605 14.6995 19.0605C15.0312 19.0605 15.2995 18.801 15.2995 18.4804V17.7983C15.3021 17.7974 15.3047 17.7972 15.3073 17.797Z" fill="#8B92B5"/>
</svg>
