<svg xmlns="http://www.w3.org/2000/svg" width="29" height="30" fill="none" viewBox="0 0 29 30">
  <path fill="#8B92B5" d="M22.063 15.385c-.504-.652-1.265-1.1-2.282-1.343 1.295-.66 1.865-1.782 1.708-3.365-.052-.574-.21-1.071-.476-1.493a2.987 2.987 0 0 0-1.076-1.017 5.923 5.923 0 0 0-1.474-.587 11.627 11.627 0 0 0-1.826-.293V4H14.63v3.196c-.348 0-.878.008-1.59.026V4h-2.01v3.287a44.07 44.07 0 0 1-1.264.013L7 7.287v2.139h1.448c.66 0 1.047.296 1.16.887v3.743c.087 0 .157.004.209.013h-.209v5.242c-.07.444-.321.666-.756.666H7.404L7 22.363h2.608c.166 0 .405.002.718.006.313.005.547.007.704.007V25.7h2.009v-3.286c.365.009.895.013 1.59.013V25.7h2.009v-3.325c.713-.035 1.345-.1 1.897-.196a7.729 7.729 0 0 0 1.585-.45 4.278 4.278 0 0 0 1.265-.763c.339-.304.619-.69.841-1.16.222-.47.363-1.013.424-1.63.113-1.21-.083-2.14-.587-2.792ZM13.077 9.57a96.376 96.376 0 0 0 1.22-.02c.187-.004.439.007.756.033.318.026.585.06.802.104.218.044.457.115.718.215.26.1.47.222.625.365.157.144.29.326.398.548.109.222.163.476.163.763 0 .244-.039.465-.117.665a1.25 1.25 0 0 1-.352.502 3.57 3.57 0 0 1-.483.353c-.165.1-.376.18-.632.24-.257.062-.48.11-.672.144-.19.035-.43.06-.717.072a45.77 45.77 0 0 1-.652.026c-.148.005-.35.005-.607 0a50.292 50.292 0 0 0-.45-.006V9.569Zm5.484 8.881c-.082.2-.189.374-.319.522a1.81 1.81 0 0 1-.515.391c-.213.113-.42.204-.62.274-.2.07-.441.13-.723.183a9.526 9.526 0 0 1-1.507.163 17.095 17.095 0 0 1-1.317.012 41.574 41.574 0 0 0-.483-.006v-4.408c.07 0 .276-.004.62-.013.343-.009.623-.013.84-.013.218 0 .518.013.901.04.382.025.704.064.965.116.26.053.545.133.854.242.309.108.559.24.75.397.192.157.352.357.483.6.13.244.196.522.196.835 0 .244-.042.465-.125.665Z"/>
</svg>
