<svg width="33" height="32" viewBox="0 0 33 32" fill="none" xmlns="http://www.w3.org/2000/svg">
<g clip-path="url(#clip0_984_5688)">
<path d="M17.8672 5.00043H15.1329C14.4152 5.00043 13.7916 5.86027 13.6263 7.07768L13.514 7.90534C13.4381 8.46433 13.6813 9.00043 14.0108 9.00043H18.9892C19.3187 9.00043 19.5619 8.46433 19.486 7.90534L19.3737 7.07768C19.2085 5.86027 18.5849 5.00043 17.8672 5.00043Z" fill="url(#paint0_linear_984_5688)"/>
<path d="M11.2184 7.23911H5.96676C4.58831 7.23911 3.39057 8.24123 3.07315 9.66008L2.85737 10.6247C2.71161 11.2762 3.17881 11.901 3.81172 11.901H13.3734C14.0063 11.901 14.4735 11.2762 14.3277 10.6247L14.1119 9.66008C13.7945 8.24116 12.5968 7.23911 11.2184 7.23911Z" fill="url(#paint1_linear_984_5688)"/>
<path d="M27.0323 7.23911H21.7807C20.4023 7.23911 19.2045 8.24123 18.8871 9.66008L18.6713 10.6247C18.5256 11.2762 18.9928 11.901 19.6257 11.901H29.1873C29.8203 11.901 30.2874 11.2762 30.1417 10.6247L29.9259 9.66008C29.6085 8.24116 28.4108 7.23911 27.0323 7.23911Z" fill="url(#paint2_linear_984_5688)"/>
<path d="M9.9877 6.81547C5.68245 6.81547 2.02775 10.0457 1.39986 14.4058L0.604567 19.9286C-0.0988673 24.8135 2.81909 29.1026 7.18055 29.1026C11.164 29.1026 14.5011 25.5247 15.0939 21.1828C15.1921 20.4641 15.7911 19.9286 16.5 19.9286C17.209 19.9286 17.8079 20.4641 17.9061 21.1828C18.4989 25.5247 21.836 29.1026 25.8194 29.1026C30.1809 29.1026 33.0989 24.8135 32.3954 19.9286L31.6001 14.4057C30.9723 10.0456 27.3175 6.8154 23.0123 6.8154H9.9877V6.81547Z" fill="url(#paint3_linear_984_5688)"/>
<path d="M6.51931 14.5035C7.4896 14.5035 8.27617 13.6715 8.27617 12.6451C8.27617 11.6188 7.4896 10.7868 6.51931 10.7868C5.54902 10.7868 4.76245 11.6188 4.76245 12.6451C4.76245 13.6715 5.54902 14.5035 6.51931 14.5035Z" fill="url(#paint4_linear_984_5688)"/>
<path d="M6.51931 20.216C7.4896 20.216 8.27617 19.384 8.27617 18.3576C8.27617 17.3313 7.4896 16.4993 6.51931 16.4993C5.54902 16.4993 4.76245 17.3313 4.76245 18.3576C4.76245 19.384 5.54902 20.216 6.51931 20.216Z" fill="url(#paint5_linear_984_5688)"/>
<path d="M9.21902 17.3598C10.1893 17.3598 10.9759 16.5277 10.9759 15.5014C10.9759 14.4751 10.1893 13.643 9.21902 13.643C8.24873 13.643 7.46216 14.4751 7.46216 15.5014C7.46216 16.5277 8.24873 17.3598 9.21902 17.3598Z" fill="url(#paint6_linear_984_5688)"/>
<path d="M3.81936 17.3598C4.78965 17.3598 5.57622 16.5277 5.57622 15.5014C5.57622 14.4751 4.78965 13.643 3.81936 13.643C2.84907 13.643 2.0625 14.4751 2.0625 15.5014C2.0625 16.5277 2.84907 17.3598 3.81936 17.3598Z" fill="url(#paint7_linear_984_5688)"/>
<path d="M19.4101 13.6904H13.5895C13.3296 13.6904 13.1189 13.9133 13.1189 14.1882C13.1189 14.4631 13.3296 14.6859 13.5895 14.6859H19.4101C19.67 14.6859 19.8807 14.4631 19.8807 14.1882C19.8807 13.9133 19.67 13.6904 19.4101 13.6904Z" fill="url(#paint8_linear_984_5688)"/>
<path d="M0.604567 19.9275C-0.0988673 24.8124 2.81909 29.1015 7.18055 29.1015C11.164 29.1015 14.5011 25.5236 15.0939 21.1817C15.1921 20.463 15.7911 19.9275 16.5 19.9275C17.209 19.9275 17.8079 20.4629 17.9061 21.1817C18.4989 25.5236 21.836 29.1015 25.8194 29.1015C30.1809 29.1015 33.0989 24.8124 32.3954 19.9275L32.3775 19.8029H0.622449L0.604567 19.9275Z" fill="url(#paint9_linear_984_5688)"/>
<path d="M25.8026 29.7996C27.9595 29.7996 29.7621 28.6705 30.9463 26.8949L22.795 17.6404L18.2085 22.8476C19.2547 26.779 22.2744 29.7996 25.8026 29.7996Z" fill="url(#paint10_linear_984_5688)"/>
<path d="M19.1256 11.1939H13.874C12.4955 11.1939 11.2978 10.1918 10.9804 8.77296L10.7646 7.80834C10.6188 7.15685 11.086 6.53204 11.7189 6.53204H21.2806C21.9136 6.53204 22.3807 7.15685 22.2349 7.80834L22.0192 8.77296C21.7017 10.1918 20.5041 11.1939 19.1256 11.1939Z" fill="url(#paint11_linear_984_5688)"/>
<path d="M12.5569 23.7735C14.4014 23.7735 15.8967 22.1918 15.8967 20.2407C15.8967 18.2895 14.4014 16.7079 12.5569 16.7079C10.7123 16.7079 9.21704 18.2895 9.21704 20.2407C9.21704 22.1918 10.7123 23.7735 12.5569 23.7735Z" fill="url(#paint12_linear_984_5688)"/>
<path d="M15.8762 19.8543L14.3985 18.2912L10.7153 22.1871L12.1931 23.7503C13.1646 23.8622 14.1736 23.5251 14.9185 22.7373C15.6633 21.9493 15.9821 20.882 15.8762 19.8543Z" fill="url(#paint13_linear_984_5688)"/>
<path d="M12.5567 22.9946C13.9951 22.9946 15.1611 21.7612 15.1611 20.2397C15.1611 18.7183 13.9951 17.4849 12.5567 17.4849C11.1184 17.4849 9.95239 18.7183 9.95239 20.2397C9.95239 21.7612 11.1184 22.9946 12.5567 22.9946Z" fill="url(#paint14_linear_984_5688)"/>
<path d="M20.4426 23.7735C22.2872 23.7735 23.7825 22.1918 23.7825 20.2407C23.7825 18.2895 22.2872 16.7079 20.4426 16.7079C18.5981 16.7079 17.1028 18.2895 17.1028 20.2407C17.1028 22.1918 18.5981 23.7735 20.4426 23.7735Z" fill="url(#paint15_linear_984_5688)"/>
<path d="M23.7622 19.8543L22.2844 18.2912L18.6013 22.1871L20.0791 23.7503C21.0506 23.8622 22.0596 23.5251 22.8045 22.7373C23.5493 21.9493 23.868 20.882 23.7622 19.8543Z" fill="url(#paint16_linear_984_5688)"/>
<path d="M20.4425 22.9946C21.8808 22.9946 23.0468 21.7612 23.0468 20.2397C23.0468 18.7183 21.8808 17.4849 20.4425 17.4849C19.0041 17.4849 17.8381 18.7183 17.8381 20.2397C17.8381 21.7612 19.0041 22.9946 20.4425 22.9946Z" fill="url(#paint17_linear_984_5688)"/>
<path d="M14.3512 11.6972H16.4845C16.7444 11.6972 16.9551 11.92 16.9551 12.1949C16.9551 12.4699 16.7444 12.6927 16.4845 12.6927H14.3512C14.0913 12.6927 13.8806 12.4699 13.8806 12.1949C13.8806 11.92 14.0913 11.6972 14.3512 11.6972Z" fill="url(#paint18_linear_984_5688)"/>
<path d="M18.1161 12.6927C17.8562 12.6927 17.6455 12.4699 17.6455 12.1949C17.6455 11.92 17.8562 11.6972 18.1161 11.6972H18.6494C18.9093 11.6972 19.12 11.92 19.12 12.1949C19.12 12.4699 18.9093 12.6927 18.6494 12.6927H18.1161Z" fill="url(#paint19_linear_984_5688)"/>
<path d="M26.3313 14.5035C27.3016 14.5035 28.0882 13.6715 28.0882 12.6451C28.0882 11.6188 27.3016 10.7868 26.3313 10.7868C25.361 10.7868 24.5745 11.6188 24.5745 12.6451C24.5745 13.6715 25.361 14.5035 26.3313 14.5035Z" fill="url(#paint20_linear_984_5688)"/>
<path d="M26.3313 20.216C27.3016 20.216 28.0882 19.384 28.0882 18.3576C28.0882 17.3313 27.3016 16.4993 26.3313 16.4993C25.361 16.4993 24.5745 17.3313 24.5745 18.3576C24.5745 19.384 25.361 20.216 26.3313 20.216Z" fill="url(#paint21_linear_984_5688)"/>
<path d="M29.031 17.3598C30.0013 17.3598 30.7879 16.5277 30.7879 15.5014C30.7879 14.4751 30.0013 13.643 29.031 13.643C28.0607 13.643 27.2742 14.4751 27.2742 15.5014C27.2742 16.5277 28.0607 17.3598 29.031 17.3598Z" fill="url(#paint22_linear_984_5688)"/>
<path d="M23.6314 17.3598C24.6017 17.3598 25.3882 16.5277 25.3882 15.5014C25.3882 14.4751 24.6017 13.643 23.6314 13.643C22.6611 13.643 21.8745 14.4751 21.8745 15.5014C21.8745 16.5277 22.6611 17.3598 23.6314 17.3598Z" fill="url(#paint23_linear_984_5688)"/>
</g>
<defs>
<linearGradient id="paint0_linear_984_5688" x1="16.5" y1="5.00043" x2="16.5" y2="9.00043" gradientUnits="userSpaceOnUse">
<stop stop-color="#95CBFF"/>
<stop offset="1" stop-color="#0118A1"/>
</linearGradient>
<linearGradient id="paint1_linear_984_5688" x1="8.59254" y1="7.23911" x2="8.59254" y2="11.901" gradientUnits="userSpaceOnUse">
<stop stop-color="#95CBFF"/>
<stop offset="1" stop-color="#0118A1"/>
</linearGradient>
<linearGradient id="paint2_linear_984_5688" x1="24.4065" y1="7.23911" x2="24.4065" y2="11.901" gradientUnits="userSpaceOnUse">
<stop stop-color="#95CBFF"/>
<stop offset="1" stop-color="#0118A1"/>
</linearGradient>
<linearGradient id="paint3_linear_984_5688" x1="11.9309" y1="9.22755" x2="22.4437" y2="30.2741" gradientUnits="userSpaceOnUse">
<stop stop-color="#EAF6FF"/>
<stop offset="1" stop-color="#B3DAFE"/>
</linearGradient>
<linearGradient id="paint4_linear_984_5688" x1="5.64239" y1="11.7175" x2="7.61133" y2="13.579" gradientUnits="userSpaceOnUse">
<stop stop-color="#9BE69D"/>
<stop offset="1" stop-color="#0996A4"/>
</linearGradient>
<linearGradient id="paint5_linear_984_5688" x1="5.64239" y1="17.43" x2="7.61134" y2="19.2915" gradientUnits="userSpaceOnUse">
<stop stop-color="#2ED1E2"/>
<stop offset="1" stop-color="#314DC9"/>
</linearGradient>
<linearGradient id="paint6_linear_984_5688" x1="8.17281" y1="14.3947" x2="11.1102" y2="17.1717" gradientUnits="userSpaceOnUse">
<stop stop-color="#F28CC4"/>
<stop offset="1" stop-color="#E41F2D"/>
</linearGradient>
<linearGradient id="paint7_linear_984_5688" x1="2.85873" y1="14.4853" x2="5.76653" y2="17.2343" gradientUnits="userSpaceOnUse">
<stop stop-color="#FEF0AE"/>
<stop offset="1" stop-color="#FAC600"/>
</linearGradient>
<linearGradient id="paint8_linear_984_5688" x1="16.4998" y1="14.8188" x2="16.4998" y2="13.744" gradientUnits="userSpaceOnUse">
<stop stop-color="#EAF6FF"/>
<stop offset="1" stop-color="#B3DAFE"/>
</linearGradient>
<linearGradient id="paint9_linear_984_5688" x1="16.4999" y1="23.206" x2="16.4999" y2="30.1752" gradientUnits="userSpaceOnUse">
<stop stop-color="#B3DAFE" stop-opacity="0"/>
<stop offset="1" stop-color="#7BACDF"/>
</linearGradient>
<linearGradient id="paint10_linear_984_5688" x1="25.959" y1="27.3179" x2="18.1563" y2="20.4453" gradientUnits="userSpaceOnUse">
<stop stop-color="#B3DAFE" stop-opacity="0"/>
<stop offset="1" stop-color="#7BACDF"/>
</linearGradient>
<linearGradient id="paint11_linear_984_5688" x1="16.4998" y1="8.23822" x2="16.4998" y2="11.7323" gradientUnits="userSpaceOnUse">
<stop stop-color="#5A5A5A"/>
<stop offset="1" stop-color="#444444"/>
</linearGradient>
<linearGradient id="paint12_linear_984_5688" x1="10.514" y1="18.0798" x2="13.9744" y2="21.3512" gradientUnits="userSpaceOnUse">
<stop stop-color="#EAF6FF"/>
<stop offset="1" stop-color="#B3DAFE"/>
</linearGradient>
<linearGradient id="paint13_linear_984_5688" x1="15.0582" y1="22.885" x2="12.2252" y2="20.2066" gradientUnits="userSpaceOnUse">
<stop stop-color="#B3DAFE" stop-opacity="0"/>
<stop offset="1" stop-color="#7BACDF"/>
</linearGradient>
<linearGradient id="paint14_linear_984_5688" x1="11.5865" y1="19.2135" x2="12.6268" y2="20.1969" gradientUnits="userSpaceOnUse">
<stop stop-color="#5A5A5A"/>
<stop offset="1" stop-color="#444444"/>
</linearGradient>
<linearGradient id="paint15_linear_984_5688" x1="18.3998" y1="18.0798" x2="21.8602" y2="21.3512" gradientUnits="userSpaceOnUse">
<stop stop-color="#EAF6FF"/>
<stop offset="1" stop-color="#B3DAFE"/>
</linearGradient>
<linearGradient id="paint16_linear_984_5688" x1="22.9442" y1="22.885" x2="20.1111" y2="20.2066" gradientUnits="userSpaceOnUse">
<stop stop-color="#B3DAFE" stop-opacity="0"/>
<stop offset="1" stop-color="#7BACDF"/>
</linearGradient>
<linearGradient id="paint17_linear_984_5688" x1="19.4723" y1="19.2135" x2="20.5125" y2="20.1969" gradientUnits="userSpaceOnUse">
<stop stop-color="#5A5A5A"/>
<stop offset="1" stop-color="#444444"/>
</linearGradient>
<linearGradient id="paint18_linear_984_5688" x1="14.1992" y1="8.95271" x2="16.4789" y2="14.3735" gradientUnits="userSpaceOnUse">
<stop stop-color="#9BE69D"/>
<stop offset="1" stop-color="#0996A4"/>
</linearGradient>
<linearGradient id="paint19_linear_984_5688" x1="18.1238" y1="11.417" x2="18.7013" y2="12.9675" gradientUnits="userSpaceOnUse">
<stop stop-color="#F28CC4"/>
<stop offset="1" stop-color="#E41F2D"/>
</linearGradient>
<linearGradient id="paint20_linear_984_5688" x1="25.4544" y1="11.7175" x2="27.4233" y2="13.579" gradientUnits="userSpaceOnUse">
<stop stop-color="#9BE69D"/>
<stop offset="1" stop-color="#0996A4"/>
</linearGradient>
<linearGradient id="paint21_linear_984_5688" x1="25.4544" y1="17.43" x2="27.4233" y2="19.2915" gradientUnits="userSpaceOnUse">
<stop stop-color="#2ED1E2"/>
<stop offset="1" stop-color="#314DC9"/>
</linearGradient>
<linearGradient id="paint22_linear_984_5688" x1="27.9848" y1="14.3947" x2="30.9222" y2="17.1717" gradientUnits="userSpaceOnUse">
<stop stop-color="#F28CC4"/>
<stop offset="1" stop-color="#E41F2D"/>
</linearGradient>
<linearGradient id="paint23_linear_984_5688" x1="22.6707" y1="14.4853" x2="25.5785" y2="17.2343" gradientUnits="userSpaceOnUse">
<stop stop-color="#FEF0AE"/>
<stop offset="1" stop-color="#FAC600"/>
</linearGradient>
<clipPath id="clip0_984_5688">
<rect width="32" height="32" fill="white" transform="translate(0.5)"/>
</clipPath>
</defs>
</svg>
