<svg xmlns="http://www.w3.org/2000/svg" width="33" height="32" fill="none" viewBox="0 0 33 32">
  <g clip-path="url(#a)">
    <path fill="url(#b)" d="M16.5 29c7.18 0 13-5.82 13-13s-5.82-13-13-13-13 5.82-13 13 5.82 13 13 13Z"/>
    <path fill="url(#c)" d="m29.216 13.29-5.498 1.176a2.723 2.723 0 0 1-2.27-.537l-4.06-3.249a2.725 2.725 0 0 1-1.02-2.125V8.55L16.375 3h.124c6.25 0 11.47 4.411 12.716 10.29Z"/>
    <path fill="url(#d)" d="M16.367 8.55v.006c0 .826-.376 1.608-1.021 2.125l-4.06 3.249a2.722 2.722 0 0 1-2.27.536l-4.649-.994-.596-.127C4.988 7.484 10.152 3.068 16.358 3.002l.01 5.549Z"/>
    <path fill="url(#e)" d="m11.868 22.527-.034.04-3.11 3.444a2.225 2.225 0 0 1-.237.227A12.977 12.977 0 0 1 3.5 16c0-.848.081-1.678.236-2.48a2.23 2.23 0 0 1 .944-.004l4.539.97c.04.008.078.018.117.028a2.223 2.223 0 0 1 1.534 1.462l1.429 4.415c.239.74.075 1.55-.43 2.136Z"/>
    <path fill="url(#f)" d="M29.5 16c0 4.157-1.95 7.858-4.987 10.238a2.217 2.217 0 0 1-.237-.226l-3.11-3.446-.034-.039a2.224 2.224 0 0 1-.43-2.136l1.429-4.415a2.224 2.224 0 0 1 1.65-1.49l4.54-.97a2.22 2.22 0 0 1 .943.003c.155.803.236 1.633.236 2.481Z"/>
    <path fill="url(#g)" d="M24.401 26.324a12.942 12.942 0 0 1-7.9 2.675c-2.973 0-5.712-.997-7.901-2.675.092-.168.204-.328.334-.476l2.9-3.283.035-.04.05-.055a2.647 2.647 0 0 1 1.982-.894H19.1a2.65 2.65 0 0 1 1.984.894l.05.056.034.04 2.9 3.282c.13.148.242.308.334.476Z"/>
    <path fill="url(#h)" d="M16.5 29c7.18 0 13-5.82 13-13s-5.82-13-13-13-13 5.82-13 13 5.82 13 13 13Z"/>
    <path fill="url(#i)" d="m15.074 10.887-3.311 2.406a2.427 2.427 0 0 0-.882 2.714l1.264 3.892a2.428 2.428 0 0 0 2.31 1.678h4.092a2.428 2.428 0 0 0 2.309-1.678l1.264-3.892c.326-1-.03-2.096-.881-2.714l-3.311-2.406a2.428 2.428 0 0 0-2.854 0Z"/>
    <path fill="url(#j)" d="m19.877 3.443-1.95 1.417a2.427 2.427 0 0 1-2.855 0l-1.95-1.417A13.017 13.017 0 0 1 16.498 3c1.169 0 2.3.154 3.378.443Z"/>
    <path fill="url(#k)" d="m29.491 15.511-.875-.61a2.427 2.427 0 0 1-.935-2.696l.55-1.814a12.93 12.93 0 0 1 1.26 5.12Z"/>
    <path fill="url(#l)" d="m4.385 14.901-.875.61c.067-1.829.513-3.56 1.26-5.12l.55 1.814a2.427 2.427 0 0 1-.935 2.696Z"/>
    <path fill="url(#m)" d="M11.604 28.046a13.032 13.032 0 0 1-5.192-3.847l2.5.152c1.05.063 1.94.795 2.204 1.813l.488 1.881Z"/>
    <path fill="url(#n)" d="M26.588 24.2a13.032 13.032 0 0 1-5.192 3.846l.488-1.882a2.427 2.427 0 0 1 2.204-1.813l2.5-.152Z"/>
  </g>
  <defs>
    <linearGradient id="b" x1="14.23" x2="21.844" y1="13.73" y2="21.344" gradientUnits="userSpaceOnUse">
      <stop stop-color="#ECF7FF"/>
      <stop offset="1" stop-color="#C2E0FF"/>
    </linearGradient>
    <linearGradient id="c" x1="15.981" x2="27.637" y1="3.196" y2="14.853" gradientUnits="userSpaceOnUse">
      <stop stop-color="#ECF7FF"/>
      <stop offset="1" stop-color="#C2E0FF"/>
    </linearGradient>
    <linearGradient id="d" x1="9.26" x2="14.572" y1="7.369" y2="12.68" gradientUnits="userSpaceOnUse">
      <stop stop-color="#ECF7FF"/>
      <stop offset="1" stop-color="#C2E0FF"/>
    </linearGradient>
    <linearGradient id="e" x1="6.258" x2="9.878" y1="17.581" y2="21.201" gradientUnits="userSpaceOnUse">
      <stop stop-color="#ECF7FF"/>
      <stop offset="1" stop-color="#C2E0FF"/>
    </linearGradient>
    <linearGradient id="f" x1="22.326" x2="28.939" y1="15.323" y2="21.937" gradientUnits="userSpaceOnUse">
      <stop stop-color="#ECF7FF"/>
      <stop offset="1" stop-color="#C2E0FF"/>
    </linearGradient>
    <linearGradient id="g" x1="12.731" x2="19.322" y1="22.283" y2="28.875" gradientUnits="userSpaceOnUse">
      <stop stop-color="#ECF7FF"/>
      <stop offset="1" stop-color="#C2E0FF"/>
    </linearGradient>
    <linearGradient id="i" x1="15.506" x2="18.843" y1="15.576" y2="18.913" gradientUnits="userSpaceOnUse">
      <stop stop-color="#45425A"/>
      <stop offset="1" stop-color="#2D3251"/>
    </linearGradient>
    <linearGradient id="j" x1="16.082" x2="17.481" y1="3.026" y2="4.425" gradientUnits="userSpaceOnUse">
      <stop stop-color="#45425A"/>
      <stop offset="1" stop-color="#2D3251"/>
    </linearGradient>
    <linearGradient id="k" x1="28.387" x2="29.709" y1="12.637" y2="13.958" gradientUnits="userSpaceOnUse">
      <stop stop-color="#45425A"/>
      <stop offset="1" stop-color="#2D3251"/>
    </linearGradient>
    <linearGradient id="l" x1="3.962" x2="4.827" y1="12.773" y2="13.638" gradientUnits="userSpaceOnUse">
      <stop stop-color="#45425A"/>
      <stop offset="1" stop-color="#2D3251"/>
    </linearGradient>
    <linearGradient id="m" x1="8.892" x2="10.764" y1="25.122" y2="26.993" gradientUnits="userSpaceOnUse">
      <stop stop-color="#45425A"/>
      <stop offset="1" stop-color="#2D3251"/>
    </linearGradient>
    <linearGradient id="n" x1="23.345" x2="24.03" y1="25.475" y2="26.161" gradientUnits="userSpaceOnUse">
      <stop stop-color="#45425A"/>
      <stop offset="1" stop-color="#2D3251"/>
    </linearGradient>
    <radialGradient id="h" cx="0" cy="0" r="1" gradientTransform="translate(11.46 10.433) scale(19.9626)" gradientUnits="userSpaceOnUse">
      <stop offset=".003" stop-color="#C2E0FF" stop-opacity="0"/>
      <stop offset=".28" stop-color="#BEDBFC" stop-opacity=".278"/>
      <stop offset=".614" stop-color="#B2CCF5" stop-opacity=".612"/>
      <stop offset=".978" stop-color="#9FB4E8" stop-opacity=".976"/>
      <stop offset="1" stop-color="#9EB2E7"/>
    </radialGradient>
    <clipPath id="a">
      <path fill="#fff" d="M3.5 3h26v26h-26z"/>
    </clipPath>
  </defs>
</svg>
