<svg width="33" height="32" viewBox="0 0 33 32" fill="none" xmlns="http://www.w3.org/2000/svg">
    <path d="M19.9536 21.3269L21.8392 19.4413L29.8532 27.455L27.9676 29.3406L19.9536 21.3269Z" fill="#A3B8EA"/>
    <path d="M13.8334 2.66675C11.0044 2.66675 8.29133 3.79055 6.29094 5.79094C4.29055 7.79133 3.16675 10.5044 3.16675 13.3334C3.16675 16.1624 4.29055 18.8755 6.29094 20.8759C8.29133 22.8763 11.0044 24.0001 13.8334 24.0001C16.6624 24.0001 19.3755 22.8763 21.3759 20.8759C23.3763 18.8755 24.5001 16.1624 24.5001 13.3334C24.5001 10.5044 23.3763 7.79133 21.3759 5.79094C19.3755 3.79055 16.6624 2.66675 13.8334 2.66675Z" fill="#3B3C57"/>
    <path d="M22.1372 23.5605L24.0228 21.6749L29.8212 27.4731L27.9356 29.3587L22.1372 23.5605Z" fill="#37474F"/>
    <path d="M13.8334 4.66675C11.5349 4.66675 9.33047 5.57984 7.70516 7.20516C6.07984 8.83047 5.16675 11.0349 5.16675 13.3334C5.16675 15.632 6.07984 17.8364 7.70516 19.4617C9.33047 21.087 11.5349 22.0001 13.8334 22.0001C16.132 22.0001 18.3364 21.087 19.9617 19.4617C21.587 17.8364 22.5001 15.632 22.5001 13.3334C22.5001 11.0349 21.587 8.83047 19.9617 7.20516C18.3364 5.57984 16.132 4.66675 13.8334 4.66675Z" fill="#64B5F6"/>
    <path d="M18.4332 9.46658C17.2999 8.13325 15.6332 7.33325 13.8332 7.33325C12.0332 7.33325 10.3666 8.13325 9.23324 9.46658C8.96657 9.73325 9.03324 10.1999 9.2999 10.3999C9.56657 10.6666 10.0332 10.5999 10.2332 10.3333C11.1666 9.26659 12.4332 8.66659 13.8332 8.66659C15.2332 8.66659 16.4999 9.26659 17.4332 10.3333C17.5666 10.4666 17.7666 10.5999 17.9666 10.5999C18.0999 10.5999 18.2999 10.5333 18.3666 10.4666C18.6332 10.1999 18.6332 9.73325 18.4332 9.46658Z" fill="#BBDEFB"/>
</svg>
