<svg width="32" height="32" viewBox="0 0 32 32" fill="none" xmlns="http://www.w3.org/2000/svg">
<path d="M25.9319 24.033C30.3684 19.5965 29.9432 11.9786 24.9823 7.01771C20.0214 2.05682 12.4035 1.63178 7.96701 6.06815C7.96073 6.07443 6.06803 7.96713 6.06803 7.96713C1.63166 12.4036 2.05669 20.0216 7.01758 24.9825C11.9785 29.9433 19.5964 30.3684 24.0329 25.932C24.0391 25.9259 25.9256 24.0392 25.9319 24.033Z" fill="url(#paint0_linear_3880_120190)"/>
<path d="M28.9039 17.8924C29.3836 14.1721 28.0513 10.0868 24.9826 7.01809C21.9139 3.94936 17.8286 2.6171 14.1083 3.09675L3.09638 14.1086C2.61673 17.8288 3.94899 21.9141 7.01772 24.9828C10.0864 28.0516 14.1718 29.3838 17.892 28.9042L28.9039 17.8924Z" fill="url(#paint1_linear_3880_120190)"/>
<path d="M3.27588 18.1872C3.79572 20.6275 5.0492 23.0141 7.01748 24.9825C8.98589 26.9508 11.3725 28.2043 13.8128 28.7241L28.724 13.813C28.2041 11.3727 26.9506 8.98607 24.9822 7.01766C23.0138 5.04938 20.6272 3.79591 18.1869 3.27606L3.27588 18.1872Z" fill="url(#paint2_linear_3880_120190)"/>
<path d="M5.18506 22.7334C5.7045 23.5252 6.31542 24.2805 7.0174 24.9825C7.71938 25.6845 8.47465 26.2955 9.2665 26.8148L26.8146 9.26668C26.2952 8.47483 25.6843 7.71957 24.9822 7.01758C24.2802 6.3156 23.5249 5.70455 22.7331 5.18524L5.18506 22.7334Z" fill="url(#paint3_linear_3880_120190)"/>
<path d="M25.9317 24.033C21.4952 28.4695 13.8773 28.0443 8.91639 23.0834C3.9555 18.1225 3.53046 10.5046 7.96683 6.06808C12.4032 1.63158 20.0213 2.05675 24.9822 7.01764C29.9431 11.9785 30.3681 19.5965 25.9317 24.033Z" fill="url(#paint4_linear_3880_120190)"/>
<path d="M24.6491 6.69615C24.591 6.64167 24.5328 6.58745 24.4741 6.53404C24.442 6.50506 24.4097 6.47662 24.3777 6.44791C24.3226 6.39891 24.2674 6.35017 24.2118 6.30209C24.1786 6.27339 24.145 6.24494 24.1115 6.2165C24.0557 6.16923 23.9996 6.12236 23.9433 6.07602C23.9104 6.04905 23.8774 6.02221 23.8445 5.9955C23.7856 5.94796 23.7263 5.9011 23.6669 5.85476C23.6361 5.83086 23.6056 5.80682 23.5747 5.78318C23.5093 5.73298 23.4433 5.6837 23.3774 5.63483C23.3521 5.61614 23.3272 5.59717 23.3018 5.57875C23.2174 5.51719 23.1326 5.45683 23.0473 5.39741C23.0402 5.39247 23.0331 5.38726 23.0259 5.38232C22.929 5.31515 22.8315 5.24945 22.7335 5.18509L18.7646 9.1541L16.547 3.03721C14.5464 2.88138 12.5646 3.22015 10.8009 4.06408L13.1761 10.6007L5.8335 9.18361C5.05447 10.9437 4.76577 12.9052 4.95646 14.8776L11.7295 16.189L7.08404 20.8345C7.60349 21.6264 8.2144 22.3816 8.91639 23.0836C9.61837 23.7856 10.3736 24.3966 11.1655 24.9159L15.811 20.2705L17.1224 27.0435C19.0948 27.2344 21.0563 26.9455 22.8164 26.1665L21.3993 18.8239L27.9358 21.1991C28.7797 19.4353 29.1185 17.4536 28.9627 15.453L22.8458 13.2354L26.8145 9.26666C26.7501 9.16852 26.6844 9.07104 26.6173 8.97423C26.6123 8.96702 26.6071 8.95994 26.6022 8.95286C26.5429 8.86753 26.4824 8.78274 26.4208 8.69835C26.4024 8.67311 26.3835 8.648 26.3648 8.62277C26.3159 8.55667 26.2666 8.49084 26.2164 8.42541C26.1928 8.39456 26.1687 8.36398 26.1448 8.33327C26.0985 8.27385 26.0516 8.21456 26.0041 8.15567C25.9774 8.12269 25.9505 8.0897 25.9236 8.05685C25.8774 8.0005 25.8305 7.94442 25.7831 7.8886C25.7547 7.85508 25.7263 7.82157 25.6975 7.78832C25.6494 7.73277 25.6007 7.67762 25.5517 7.62247C25.523 7.59029 25.4945 7.55797 25.4656 7.52606C25.4123 7.46731 25.3579 7.40908 25.3034 7.351C25.2779 7.32376 25.2528 7.29638 25.2272 7.26927C25.1467 7.18475 25.0651 7.10076 24.982 7.0177C24.899 6.93464 24.815 6.85305 24.7305 6.77253C24.7037 6.74676 24.6764 6.72166 24.6491 6.69615Z" fill="url(#paint5_linear_3880_120190)"/>
<path d="M23.4673 21.5685C20.248 24.7877 14.7202 24.4792 11.1204 20.8794C7.5206 17.2796 7.21214 11.7518 10.4314 8.53255C13.6506 5.31334 19.1784 5.6218 22.7782 9.22159C26.378 12.8214 26.6865 18.3492 23.4673 21.5685Z" fill="url(#paint6_linear_3880_120190)"/>
<path d="M27.9396 15.0822L22.8459 13.2355L26.1321 9.94941C25.6281 9.14808 25.0236 8.38521 24.3192 7.68069C23.6148 6.9763 22.8519 6.37179 22.0505 5.86784L18.7645 9.15409L16.9179 4.06047C14.911 3.84348 12.9115 4.16756 11.1574 5.04514L13.176 10.6005L6.88084 9.38564C6.04279 11.1246 5.74234 13.0963 5.96547 15.0728L11.7296 16.1889L7.7667 20.1518C8.27065 20.9531 8.87516 21.716 9.57955 22.4205C10.2839 23.1249 11.0468 23.7294 11.8483 24.2333L15.8111 20.2705L16.9272 26.0346C18.9038 26.2577 20.8755 25.9572 22.6145 25.1192L21.3996 18.824L26.955 20.8426C27.8325 19.0886 28.1565 17.089 27.9396 15.0822Z" fill="url(#paint7_linear_3880_120190)"/>
<path d="M22.7347 20.8361C19.8773 23.6936 14.9706 23.4197 11.7754 20.2245C8.58023 17.0294 8.30636 12.1227 11.1638 9.26521C14.0213 6.40774 18.928 6.68161 22.1232 9.8768C25.3185 13.072 25.5922 17.9787 22.7347 20.8361Z" fill="url(#paint8_linear_3880_120190)"/>
<path d="M3.93446 11.0824C3.15543 12.8425 2.86673 14.804 3.05741 16.7764L4.95639 14.8775L5.83343 9.18347L3.93446 11.0824Z" fill="url(#paint9_linear_3880_120190)"/>
<path d="M10.7235 13.6387L11.4711 12.8911C11.6921 12.6701 11.995 12.5311 12.3799 12.4742C12.7649 12.4172 13.1608 12.4177 13.5678 12.4751L14.7978 12.6518C15.2166 12.7196 15.6056 12.7418 15.9648 12.719C16.324 12.6961 16.594 12.5944 16.7748 12.4136C16.9194 12.269 16.9979 12.092 17.0107 11.8826C17.0233 11.6733 16.9314 11.4703 16.7348 11.2737C16.5641 11.1029 16.3766 11.0111 16.1725 10.9977C15.9684 10.9844 15.763 11.0812 15.5563 11.2879C15.4344 11.4098 15.2716 11.4592 15.0682 11.4358C14.8646 11.4125 14.6698 11.3077 14.4832 11.1211C14.1304 10.7683 14.1609 10.3851 14.5745 9.97138C15.0188 9.52712 15.5467 9.34231 16.1578 9.41749C16.7692 9.49254 17.3061 9.76134 17.7689 10.2242C18.2459 10.7011 18.5238 11.2592 18.6028 11.8984C18.6819 12.5376 18.4837 13.0947 18.0085 13.57C17.6987 13.8798 17.3248 14.0894 16.8869 14.1989C16.4491 14.3083 16.0216 14.3405 15.605 14.2955C15.1883 14.2505 14.7855 14.1886 14.3974 14.1101C14.0089 14.0315 13.6584 13.983 13.3458 13.9646C13.033 13.9463 12.8147 13.999 12.6909 14.1229L12.6212 14.1926L14.6413 16.2127C14.7389 16.3103 14.7726 16.4461 14.7425 16.6203C14.7122 16.7944 14.6284 16.9504 14.4904 17.0883C14.3525 17.2262 14.1942 17.313 14.0154 17.3488C13.8366 17.3845 13.6987 17.3539 13.6018 17.2568L10.8746 14.5297C10.7571 14.4122 10.6768 14.2601 10.6339 14.0733C10.5907 13.8863 10.6206 13.7416 10.7235 13.6387Z" fill="url(#paint10_linear_3880_120190)"/>
<path d="M15.6163 16.5137C15.8155 16.3146 16.0031 16.2265 16.1792 16.2495C16.3555 16.2724 16.5431 16.3835 16.7423 16.5827C16.9823 16.8227 17.1035 17.0206 17.1062 17.1764C17.1088 17.3321 17.0385 17.4817 16.8956 17.6246C16.7474 17.7728 16.6951 17.9501 16.7386 18.157C16.782 18.3638 16.9007 18.5643 17.0949 18.7583C17.5596 19.223 18.032 19.2154 18.5121 18.7353L18.6576 18.5898C18.9077 18.3395 19.0354 18.0918 19.0407 17.8466C19.0458 17.6015 18.9411 17.3717 18.7266 17.1572L17.5622 15.9928C17.3937 15.8243 17.3145 15.666 17.3248 15.5178C17.335 15.3697 17.4167 15.2191 17.57 15.0658C17.6056 15.0302 17.6847 14.9611 17.8074 14.859L19.9447 13.1353C20.2154 12.9157 20.4094 12.8645 20.5269 12.9822L22.9707 15.426C23.078 15.5332 23.1111 15.6686 23.0703 15.832C23.0295 15.9956 22.9375 16.1488 22.7946 16.2916C22.6516 16.4347 22.4984 16.5267 22.335 16.5674C22.1715 16.6083 22.0363 16.575 21.929 16.4678L20.2513 14.7901L19.1482 15.74L19.6462 16.238C20.2181 16.8099 20.541 17.3985 20.6152 18.0038C20.6892 18.609 20.4352 19.2027 19.853 19.7849L19.7074 19.9304C19.1048 20.5331 18.4894 20.8063 17.8612 20.7501C17.2329 20.694 16.6406 20.3874 16.0839 19.8308C15.4966 19.2434 15.1748 18.6409 15.1187 18.0229C15.0621 17.4049 15.2281 16.9019 15.6163 16.5137Z" fill="url(#paint11_linear_3880_120190)"/>
<path d="M25.1902 23.2915C21.12 27.3617 14.1307 26.9718 9.57939 22.4203C5.02804 17.869 4.63799 10.8797 8.70822 6.80952C12.7784 2.7393 19.7677 3.12921 24.319 7.68069C28.8705 12.232 29.2606 19.2212 25.1902 23.2915Z" fill="url(#paint12_linear_3880_120190)"/>
<defs>
<linearGradient id="paint0_linear_3880_120190" x1="7.01477" y1="7.01907" x2="24.9771" y2="24.9814" gradientUnits="userSpaceOnUse">
<stop stop-color="#E4F2FF"/>
<stop offset="1" stop-color="#B2CBFF"/>
</linearGradient>
<linearGradient id="paint1_linear_3880_120190" x1="11.027" y1="20.9699" x2="4.28834" y2="27.7086" gradientUnits="userSpaceOnUse">
<stop stop-color="#3F3CED" stop-opacity="0"/>
<stop offset="0.2796" stop-color="#3C3DE4" stop-opacity="0.28"/>
<stop offset="0.7305" stop-color="#3541CC" stop-opacity="0.731"/>
<stop offset="1" stop-color="#2F43BB"/>
</linearGradient>
<linearGradient id="paint2_linear_3880_120190" x1="10.1493" y1="21.8469" x2="4.88363" y2="27.1126" gradientUnits="userSpaceOnUse">
<stop stop-color="#3F3CED" stop-opacity="0"/>
<stop offset="0.2796" stop-color="#3C3DE4" stop-opacity="0.28"/>
<stop offset="0.7305" stop-color="#3541CC" stop-opacity="0.731"/>
<stop offset="1" stop-color="#2F43BB"/>
</linearGradient>
<linearGradient id="paint3_linear_3880_120190" x1="11.3478" y1="23.1607" x2="9.13899" y2="26.5636" gradientUnits="userSpaceOnUse">
<stop stop-color="#00ADFB"/>
<stop offset="1" stop-color="#3F3CED"/>
</linearGradient>
<linearGradient id="paint4_linear_3880_120190" x1="17.1168" y1="6.8468" x2="16.5416" y2="34.3428" gradientUnits="userSpaceOnUse">
<stop stop-color="#E4F2FF"/>
<stop offset="1" stop-color="#B2CBFF"/>
</linearGradient>
<linearGradient id="paint5_linear_3880_120190" x1="18.9584" y1="8.85454" x2="13.6231" y2="25.2788" gradientUnits="userSpaceOnUse">
<stop stop-color="#00ADFB"/>
<stop offset="1" stop-color="#3F3CED"/>
</linearGradient>
<linearGradient id="paint6_linear_3880_120190" x1="17.9129" y1="7.37113" x2="15.726" y2="24.726" gradientUnits="userSpaceOnUse">
<stop stop-color="#00ADFB"/>
<stop offset="1" stop-color="#3F3CED"/>
</linearGradient>
<linearGradient id="paint7_linear_3880_120190" x1="16.8763" y1="20.0945" x2="17.1658" y2="-1.03725" gradientUnits="userSpaceOnUse">
<stop stop-color="#00ADFB" stop-opacity="0"/>
<stop offset="1" stop-color="#18CEFB"/>
</linearGradient>
<linearGradient id="paint8_linear_3880_120190" x1="17.3114" y1="8.66159" x2="16.4969" y2="22.8754" gradientUnits="userSpaceOnUse">
<stop stop-color="#E4F2FF"/>
<stop offset="1" stop-color="#B2CBFF"/>
</linearGradient>
<linearGradient id="paint9_linear_3880_120190" x1="4.81433" y1="10.7908" x2="3.67464" y2="15.9825" gradientUnits="userSpaceOnUse">
<stop stop-color="#00ADFB"/>
<stop offset="1" stop-color="#3F3CED"/>
</linearGradient>
<linearGradient id="paint10_linear_3880_120190" x1="15.4191" y1="11.1493" x2="12.2518" y2="19.1394" gradientUnits="userSpaceOnUse">
<stop stop-color="#00ADFB"/>
<stop offset="1" stop-color="#3F3CED"/>
</linearGradient>
<linearGradient id="paint11_linear_3880_120190" x1="20.4644" y1="13.1492" x2="17.2971" y2="21.1394" gradientUnits="userSpaceOnUse">
<stop stop-color="#00ADFB"/>
<stop offset="1" stop-color="#3F3CED"/>
</linearGradient>
<linearGradient id="paint12_linear_3880_120190" x1="16.9558" y1="14.9934" x2="20.3124" y2="-3.13228" gradientUnits="userSpaceOnUse">
<stop stop-color="white" stop-opacity="0"/>
<stop offset="1" stop-color="white"/>
</linearGradient>
</defs>
</svg>
