<svg width="409" height="92" viewBox="0 0 409 92" fill="none" xmlns="http://www.w3.org/2000/svg">
<path d="M0 91.9749L14.1517 1H68.0351C96.5676 1 114.614 19.3355 110.388 46.5C106.163 73.6646 82.4158 92 53.8834 92H0V91.9749ZM59.2793 68.4474C72.3875 68.4474 83.154 59.4928 85.1647 46.4749C87.201 33.3065 79.2343 24.352 66.1261 24.352H35.7356L28.8888 68.4474H59.3048H59.2793Z" fill="#0366FE"/>
<path d="M166.525 6.72401C164.63 2.23298 161.271 0 156.397 0H150.663C145.789 0 141.748 2.23298 138.464 6.72401L115.405 38.8638C115.531 41.8745 115.355 45.0107 114.849 48.2975C111.667 68.9211 97.2961 84.4265 78.2021 90.724L78 91H105.606L149.325 28.276L160.69 57.5305H138.237L124.649 77H168.267L173.824 91H201L166.525 6.72401Z" fill="#0366FE"/>
<path d="M230.995 92C211.249 92 201.891 81.527 204.4 64.968C206.156 53.3539 212.704 45.8732 220.307 43.4642C214.16 40.9283 211.525 33.828 213.005 24.2172C215.088 10.473 224.497 0 244.368 0H281.727C301.623 0 307.695 10.473 305.612 24.1918C304.182 33.6759 299.54 40.903 292.616 43.4388C299.49 45.8478 303.756 53.3539 301.999 64.9427C299.49 81.5017 286.97 91.9746 267.074 91.9746H230.995V92ZM237.594 54.0639C233.052 54.0639 229.941 56.7519 229.239 61.4179C228.561 65.957 230.869 68.4928 235.411 68.4928H269.784C274.325 68.4928 277.411 65.957 278.089 61.4179C278.791 56.7519 276.658 54.0639 272.092 54.0639H237.568H237.594ZM243.791 22.4928C239.525 22.4928 236.615 24.9019 235.938 29.2889C235.285 33.6759 237.443 36.2117 241.708 36.2117H273.246C277.512 36.2117 280.447 33.6759 281.124 29.2889C281.802 24.9019 279.594 22.4928 275.329 22.4928H243.791Z" fill="#E71F23"/>
<path d="M333.26 92C313.32 92 303.87 81.527 306.404 64.968C308.177 53.3539 314.79 45.8732 322.466 43.4642C316.259 40.9283 313.599 33.828 315.094 24.2172C317.197 10.473 326.698 0 346.764 0H384.489C404.58 0 410.711 10.473 408.608 24.1918C407.164 33.6759 402.477 40.903 395.484 43.4388C402.426 45.8478 406.734 53.3539 404.96 64.9427C402.426 81.5017 389.784 91.9746 369.693 91.9746H333.26V92ZM339.923 54.0639C335.337 54.0639 332.195 56.7519 331.486 61.4179C330.802 65.957 333.133 68.4928 337.719 68.4928H372.429C377.015 68.4928 380.131 65.957 380.815 61.4179C381.524 56.7519 379.371 54.0639 374.76 54.0639H339.898H339.923ZM346.181 22.4928C341.874 22.4928 338.935 24.9019 338.251 29.2889C337.592 33.6759 339.771 36.2117 344.078 36.2117H375.925C380.232 36.2117 383.197 33.6759 383.881 29.2889C384.565 24.9019 382.335 22.4928 378.028 22.4928H346.181Z" fill="#E71F23"/>
</svg>
