<svg xmlns="http://www.w3.org/2000/svg" width="30" height="33" fill="none" viewBox="0 0 30 33">
  <g filter="url(#a)">
    <path fill="#8B92B5" d="m19.132 8.518-1.664-2.852a.59.59 0 0 0-.81-.208L11.57 8.51l7.562.007Z"/>
    <path fill="#8B92B5" d="M7.945 9.295a.786.786 0 0 1-.784-.784c0-.431.353-.784.784-.784h2.642l2.618-1.568h-5.26a2.35 2.35 0 0 0-2.313 1.96c-.016.063-.04.125-.04.196V20.27a2.359 2.359 0 0 0 2.353 2.352h13.328c.862 0 1.568-.706 1.568-1.568v-1.568h-1.96a3.533 3.533 0 0 1-3.528-3.528 3.533 3.533 0 0 1 3.528-3.528h1.96v-1.568c0-.863-.706-1.568-1.568-1.568H7.945Zm12.544-1.568c0-.792-.588-1.45-1.357-1.553l1.357 2.337v-.784Z"/>
    <path fill="#8B92B5" d="M23.82 13.607h-2.94a2.355 2.355 0 0 0-2.351 2.352 2.355 2.355 0 0 0 2.352 2.352h2.94a.588.588 0 0 0 .588-.588v-3.528a.588.588 0 0 0-.588-.588Zm-2.94 3.136a.784.784 0 1 1 .001-1.569.784.784 0 0 1 0 1.569Z"/>
  </g>
  <defs>
    <filter id="a" width="38.375" height="38.375" x="-4.187" y="0" color-interpolation-filters="sRGB" filterUnits="userSpaceOnUse">
      <feFlood flood-opacity="0" result="BackgroundImageFix"/>
      <feColorMatrix in="SourceAlpha" result="hardAlpha" values="0 0 0 0 0 0 0 0 0 0 0 0 0 0 0 0 0 0 127 0"/>
      <feOffset dy="5.187"/>
      <feGaussianBlur stdDeviation="2.594"/>
      <feComposite in2="hardAlpha" operator="out"/>
      <feColorMatrix values="0 0 0 0 0 0 0 0 0 0 0 0 0 0 0 0 0 0 0.25 0"/>
      <feBlend in2="BackgroundImageFix" result="effect1_dropShadow_5623_10106"/>
      <feBlend in="SourceGraphic" in2="effect1_dropShadow_5623_10106" result="shape"/>
    </filter>
  </defs>
</svg>
