<svg width="29" height="30" viewBox="0 0 29 30" fill="none" xmlns="http://www.w3.org/2000/svg">
<path d="M18.7217 7.50764L20.1853 6.95879C20.4863 7.28595 20.9176 7.49139 21.3962 7.49139C22.3037 7.49139 23.042 6.75306 23.042 5.84555C23.042 4.93803 22.3037 4.19971 21.3962 4.19971C20.5029 4.19971 19.774 4.91524 19.7514 5.80317L17.8878 6.50203C17.6469 6.59235 17.4873 6.82268 17.4873 7.07993V8.35545H18.7217V7.50764Z" fill="#8B92B5"/>
<path d="M10.0801 21.9577L8.61649 22.5065C8.31551 22.1794 7.88413 21.9739 7.40561 21.9739C6.49809 21.9739 5.75977 22.7123 5.75977 23.6198C5.75977 24.5273 6.49809 25.2656 7.40561 25.2656C8.29893 25.2656 9.02775 24.5501 9.05038 23.6622L10.914 22.9633C11.1549 22.873 11.3145 22.6426 11.3145 22.3854V21.1099H10.0801V21.9577Z" fill="#8B92B5"/>
<path d="M15.0179 22.0944V21.1099H13.7835V22.0944C13.181 22.3391 12.7549 22.9305 12.7549 23.6198C12.7549 24.5273 13.4932 25.2656 14.4007 25.2656C15.3082 25.2656 16.0466 24.5273 16.0466 23.6198C16.0466 22.9305 15.6204 22.3391 15.0179 22.0944Z" fill="#8B92B5"/>
<path d="M21.3962 21.9739C20.9176 21.9739 20.4863 22.1794 20.1853 22.5065L18.7217 21.9577V21.1099H17.4873V22.3854C17.4873 22.6426 17.6469 22.873 17.8878 22.9633L19.7514 23.6622C19.774 24.5501 20.5029 25.2656 21.3962 25.2656C22.3037 25.2656 23.042 24.5273 23.042 23.6198C23.042 22.7123 22.3037 21.9739 21.3962 21.9739Z" fill="#8B92B5"/>
<path d="M13.7835 7.37087V8.35545H15.0179V7.37087C15.6204 7.12618 16.0466 6.53487 16.0466 5.84555C16.0466 4.93803 15.3082 4.19971 14.4007 4.19971C13.4932 4.19971 12.7549 4.93803 12.7549 5.84555C12.7549 6.53487 13.181 7.12618 13.7835 7.37087Z" fill="#8B92B5"/>
<path d="M7.40561 7.49139C7.88413 7.49139 8.31551 7.28595 8.61649 6.95879L10.0801 7.50764V8.35545H11.3145V7.07993C11.3145 6.82268 11.1549 6.59235 10.914 6.50203L9.05038 5.80317C9.02775 4.91524 8.29893 4.19971 7.40561 4.19971C6.49809 4.19971 5.75977 4.93803 5.75977 5.84555C5.75977 6.75306 6.49809 7.49139 7.40561 7.49139Z" fill="#8B92B5"/>
<path d="M22.013 15.5552V13.9093C22.013 13.4548 21.6446 13.0864 21.1901 13.0864H19.5443C18.6353 13.0864 17.8984 13.8233 17.8984 14.7323C17.8984 15.6412 18.6353 16.3781 19.5443 16.3781H21.1901C21.6446 16.3781 22.013 16.0097 22.013 15.5552Z" fill="#8B92B5"/>
<path d="M19.5437 11.8514H21.1895V11.0285C21.1895 10.2331 20.5448 9.58838 19.7494 9.58838H9.05144C8.25609 9.58838 7.61133 10.2331 7.61133 11.0285V18.4348C7.61133 19.2301 8.25609 19.8749 9.05144 19.8749H19.7494C20.5448 19.8749 21.1895 19.2301 21.1895 18.4348V17.6119H19.5437C17.9555 17.6119 16.6635 16.3198 16.6635 14.7316C16.6635 13.1435 17.9555 11.8514 19.5437 11.8514Z" fill="#8B92B5"/>
</svg>
