<svg width="29" height="28" viewBox="0 0 29 28" fill="none" xmlns="http://www.w3.org/2000/svg">
<path d="M23.8911 17.6363C23.4218 17.6363 22.9524 17.9772 22.9524 18.5455V20.8181C22.9524 21.6136 22.2482 22.1818 21.5442 22.1818H19.1973C18.7278 22.1818 18.2585 22.5227 18.2585 23.0909C18.2585 23.659 18.6105 24 19.1973 24H21.5442C23.3044 24 24.8298 22.6363 24.8298 20.8181V18.5455C24.8298 18.0909 24.3605 17.6363 23.8911 17.6363Z" fill="#8B92B5"/>
<path d="M19.1973 5.81818H21.5442C22.3656 5.81818 22.9524 6.49999 22.9524 7.18182V9.45453C22.9524 9.90908 23.3045 10.3636 23.8912 10.3636C24.4779 10.3636 24.83 10.0227 24.83 9.45453V7.18182C24.83 5.47727 23.4218 4 21.5442 4H19.1973C18.7279 4 18.2585 4.34091 18.2585 4.90909C18.2585 5.47727 18.7279 5.81818 19.1973 5.81818Z" fill="#8B92B5"/>
<path d="M9.80951 22.1818H7.46258C6.64114 22.1818 6.05441 21.5 6.05441 20.8181V18.5455C6.05441 18.0909 5.70238 17.6363 5.11563 17.6363C4.5289 17.6363 4.17687 18.0909 4.17687 18.5455V20.8181C4.17687 22.5227 5.58503 24 7.46258 24H9.80951C10.2789 24 10.7483 23.659 10.7483 23.0909C10.7483 22.5227 10.2789 22.1818 9.80951 22.1818Z" fill="#8B92B5"/>
<path d="M5.11566 10.3636C5.58505 10.3636 6.05444 10.0227 6.05444 9.45453V7.18182C6.05444 6.38636 6.75852 5.81818 7.4626 5.81818H9.80954C10.2789 5.81818 10.7483 5.47727 10.7483 4.90909C10.7483 4.34091 10.2789 4 9.80954 4H7.4626C5.7024 4 4.17689 5.47727 4.17689 7.18182V9.45453C4.17689 9.90908 4.64627 10.3636 5.11566 10.3636Z" fill="#8B92B5"/>
<path d="M19.1973 20.8181C20.4881 20.8181 21.5443 19.7955 21.5443 18.5455V16.5H7.46261V18.5455C7.46261 19.7955 8.51874 20.8181 9.80955 20.8181H19.1973Z" fill="#8B92B5"/>
<path d="M25.0647 13.0909H21.5443V9.45459C21.5443 8.20459 20.4881 7.18187 19.1973 7.18187H9.80954C8.51873 7.18187 7.4626 8.20459 7.4626 9.45459V13.3182H3.9422C3.4728 13.3182 3.00342 13.6591 3.00342 14.2274C3.00342 14.7955 3.35546 15.1364 3.9422 15.1364H25.0647C25.534 15.1364 26.0034 14.7955 26.0034 14.2274C26.0034 13.6591 25.534 13.0909 25.0647 13.0909Z" fill="#8B92B5"/>
</svg>
