<svg xmlns="http://www.w3.org/2000/svg" width="45" height="27" fill="none" viewBox="0 0 45 27">
  <path fill="url(#a)" d="M0 4a4 4 0 0 1 4-4h37a4 4 0 0 1 4 4v18H4a4 4 0 0 1-4-4V4Z"/>
  <path fill="#fff" d="M17.678 16V6.2h1.82V16h-1.82Zm-6.286 0V6.2h1.82V16h-1.82Zm.756-4.032V10.26h6.412v1.708h-6.412Zm13.056 4.172c-.737 0-1.395-.163-1.974-.49a3.72 3.72 0 0 1-1.372-1.372c-.336-.579-.504-1.237-.504-1.974 0-.737.168-1.395.504-1.974a3.616 3.616 0 0 1 1.372-1.358c.579-.336 1.237-.504 1.974-.504.728 0 1.382.168 1.96.504.579.327 1.032.78 1.358 1.358.336.579.504 1.237.504 1.974 0 .737-.168 1.395-.504 1.974a3.617 3.617 0 0 1-1.358 1.372c-.578.327-1.232.49-1.96.49Zm0-1.526c.402 0 .756-.103 1.064-.308.318-.205.565-.48.742-.826.187-.345.276-.737.266-1.176.01-.448-.08-.845-.266-1.19a2.015 2.015 0 0 0-.742-.812 1.874 1.874 0 0 0-1.064-.308 2.01 2.01 0 0 0-1.834 1.134 2.536 2.536 0 0 0-.266 1.176c0 .439.089.83.266 1.176.178.345.425.62.742.826.327.205.69.308 1.092.308ZM31.364 16V6.746h1.723V16h-1.722Zm-1.455-5.782V8.622h4.788v1.596h-4.788Z"/>
  <path fill="#6E091D" d="M40 22h5l-5 5v-5Z"/>
  <defs>
    <linearGradient id="a" x1="0" x2="45" y1="11" y2="11" gradientUnits="userSpaceOnUse">
      <stop offset=".319" stop-color="#C22A48"/>
      <stop offset="1" stop-color="#920C26"/>
    </linearGradient>
  </defs>
</svg>
